<svg xmlns="http://www.w3.org/2000/svg" viewBox="0 0 475.94 475.94"><defs><style>.cls-1{fill:#fff;}</style></defs><title>logo-BUET</title><g id="Layer_2" data-name="Layer 2"><g id="Layer_1-2" data-name="Layer 1"><path class="cls-1" d="M238,475.94A238,238,0,0,1,69.7,69.7,238,238,0,1,1,406.24,406.24,236.45,236.45,0,0,1,238,475.94ZM238,10C112.27,10,10,112.27,10,238s102.27,228,228,228,228-102.27,228-228S363.67,10,238,10Z"/><rect class="cls-1" x="-66.78" y="181.49" width="411.26" height="10" transform="translate(-91.02 221.37) rotate(-61.96)"/><rect class="cls-1" x="332.09" y="-19.14" width="10" height="411.26" transform="translate(-48.1 180.37) rotate(-28.04)"/><path class="cls-1" d="M242.48,473.58h-9l-125-234.7H367.5ZM125.09,248.88,238,460.78l112.87-211.9Z"/><polygon class="cls-1" points="387.48 415.19 239.33 137.01 88.48 408.65 79.74 403.8 239.52 116.08 396.31 410.49 387.48 415.19"/><path class="cls-1" d="M237,413.3,159.14,267.08H316.89ZM175.8,277.08l.11.2,61.23,115L300,277.08Z"/></g></g></svg>